<svg xmlns="http://www.w3.org/2000/svg" width="200.000000pt" height="200.000000pt" viewBox="0 0 200.000000 200.000000" preserveAspectRatio="xMidYMid meet"><g transform="translate(0.000000,200.000000) scale(0.100000,-0.100000)" fill="#000000" stroke="none"><path d="M929 1697 c-25 -55 -34 -89 -37 -149 -4 -69 -2 -84 22 -133 33 -66 83 -111 186 -165 43 -22 91 -55 106 -73 37 -43 72 -123 76 -171 l3 -40 -137 -105 c-82 -63 -132 -108 -125 -112 7 -4 71 -28 142 -53 72 -26 142 -56 157 -66 l26 -19 84 33 c45 18 109 46 141 61 l58 27 -159 118 c-185 137 -191 147 -143 235 40 72 95 111 167 119 74 8 152 44 186 84 33 40 53 124 44 186 -4 25 -9 46 -10 46 -2 0 -23 -11 -47 -24 -24 -13 -74 -34 -111 -45 -37 -12 -79 -31 -93 -43 -31 -24 -61 -80 -71 -133 l-7 -40 45 42 c41 37 96 73 113 73 4 0 -15 -17 -42 -39 -61 -49 -109 -100 -162 -173 -23 -32 -43 -58 -46 -58 -2 0 -15 37 -29 83 -22 72 -70 163 -141 272 l-20 29 24 -16 c32 -23 107 -131 122 -176 10 -32 13 -33 23 -16 6 10 10 55 11 99 0 114 -30 166 -141 246 -45 32 -104 83 -132 113 l-50 55 -33 -72z"></path><path d="M627 800 c-70 -7 -264 -67 -291 -91 -8 -7 8 -48 101 -257 l23 -52 70 35 c38 19 84 35 102 35 19 0 148 -38 288 -86 188 -63 264 -84 290 -81 30 4 681 360 725 397 24 20 18 56 -12 80 -45 35 -98 24 -274 -60 -85 -40 -184 -83 -221 -97 l-66 -25 5 -52 c8 -81 2 -83 -170 -61 -78 9 -167 26 -197 36 -81 26 -133 49 -127 56 4 3 37 -7 74 -22 81 -33 380 -80 401 -63 14 12 16 47 2 82 -13 35 -52 57 -179 101 -58 21 -158 60 -223 86 -126 53 -146 56 -321 39z"></path><path d="M152 717 c-51 -23 -94 -49 -97 -58 -6 -16 157 -395 179 -418 12 -11 31 -6 120 34 87 39 106 51 105 69 0 11 -39 109 -87 216 -69 154 -91 195 -107 197 -11 1 -62 -17 -113 -40z"></path></g></svg>