<svg xmlns="http://www.w3.org/2000/svg" xmlns:xlink="http://www.w3.org/1999/xlink" fill="#000000" height="800px" width="800px" id="Layer_1" viewBox="-63 65 128 128" xml:space="preserve"><path id="Layer_1_1_" d="M47.7,172.8c-0.5-2.2-0.1-4.7,1.2-6.8l10.5-16.7c2.5-4,3.1-9.1,2-13.5l-8.2-36.1c-0.6-2.9-3.5-4.8-6.5-4.1  c-2.9,0.6-4.7,3.5-4,6.5l5.1,22.2c1.1,0.2,2.2,0.6,3.1,1.3c2,1.3,3.5,3.3,4,5.6c0.5,2.3,0.1,4.8-1.2,6.8l-12.1,19.2  c-0.5,0.8-1.6,1.2-2.5,0.5c-0.8-0.5-1.2-1.6-0.5-2.4L50.8,136c1.6-2.5,0.8-5.8-1.7-7.4c-2.5-1.6-5.8-0.8-7.4,1.7l-15.2,24.1  c-2.5,3.9-4.4,8.5-2.2,12.9l15.1,24.4l24.6-0.1L47.7,172.8z M-39.4,130.3c-1.6-2.5-4.9-3.3-7.4-1.7c-2.5,1.6-3.3,4.9-1.7,7.4  l12.2,19.3c0.5,0.7,0.3,1.9-0.5,2.4c-0.8,0.5-1.9,0.3-2.5-0.5l-12.2-19.2c-1.4-2-1.7-4.5-1.2-6.8s2-4.4,4-5.6c1-0.6,2-1.1,3.1-1.3  l5.1-22.2c0.6-3-1.2-5.8-4-6.5c-3-0.6-5.8,1.3-6.5,4.1l-8.3,36.1c-1.1,4.2-0.5,9.3,2,13.5l10.5,16.7c1.3,2.1,1.7,4.6,1.2,6.8  l-16.3,18.6l24.6,0.1l15.1-24.4c2.2-4.4,0.3-8.8-2.2-12.9L-39.4,130.3z M33.1,114.8C32,97,16.6,83.5-1.1,84.7  c-17.8,1.1-31.3,16.5-30.2,34.2c1.1,17.8,16.5,31.3,34.2,30.2C20.7,148,34.1,132.7,33.1,114.8z M-0.8,145.3  c-6.4-0.3-12.3-2.9-17.2-7.1c-5.7-5-9.1-12-9.6-19.5c-0.4-6.8,1.3-13.1,5.3-18.5c0.2,1.4,0.8,2.4,0.8,3.5c0,3.8-0.2,6.2,2.1,9.2  c1,1.2,1.3,3,1.8,4.4s2.2,2,3.4,2.9c2.4,1.6,4.7,3.5,7.2,4.9c1.7,1,2.7,1.4,2.3,3.4c-0.3,1.6-0.3,2.5-1.1,4  c-0.2,0.4,1.2,3.1,1.6,3.5c1.3,1.2,2.5,2.1,3.9,3.2C2.1,140.5-0.1,142.9-0.8,145.3z M7.9,144.5c0.6-2,1.9-3.8,3.2-4.9  c1.1-1,2.4-2.8,2.9-4c0.5-1.4,1.2-2.5,1.9-3.8c1.1-1.8-3.1-4.1-4.4-4.7c-3-1.1-5.2-2.5-7.9-4.2c-1.9-1.2-7.6,1.5-9.7,0.6  c-2.9-1.1-3.8-2-6.4-3.7c-2.7-1.7-1.9-5.4-2.1-8.2c1.9,0,4.7-0.8,6.2,0.6c0.4,0.4,2,2.7,2.9,1.8c0.7-0.7-0.7-3.2-1.1-3.8  c-1-1.8,1.7-2.8,2.9-4c1.6-1.8,5.2-4.6,4.9-5.7c-0.3-1.2-4-4.4-6.1-3.6c-0.3,0.1-2.7,2.5-3.2,3.1c0-1-0.2-1.4-0.2-2.2  c0-0.5-1.2-1.1-1.2-1.5c0.1-1,2.5-2.9,3.2-3.6c-0.4-0.2-2.1-1.5-2.5-1.3c-1.1,0.5-2.3,1-3.5,1.5c0-0.4-0.1-0.7-0.2-1.2  c2.2-1.2,4.6-2,7.1-2.5l2.3,0.7l1.7,1.8l1.7,1.5c0,0,1,0.4,1.4,0.3s2-2.2,2-2.2l-0.6-1.5L3,88.3c4.4,0.3,8.6,1.7,12.3,4  c-0.6,0.1-1.4,0.2-2.1,0.4c-0.3-0.2-2,0.2-1.9,0.8s3.2,3.1,4.5,5.2c1.3,2.3,5.1,3.7,5.6,6.2c0.7,2.9-0.4,6.6,0.1,10  c0.5,3.3,4.1,6.9,4.1,6.9s1.6,0.4,3,0.2c-1,5-3.2,9.7-6.7,13.6C18.3,140,13.4,143.1,7.9,144.5z"></path></svg>