<svg xmlns="http://www.w3.org/2000/svg" width="360.000000pt" height="417.000000pt" viewBox="0 0 360.000000 417.000000" preserveAspectRatio="xMidYMid meet"><g transform="translate(0.000000,417.000000) scale(0.100000,-0.100000)" fill="#000000" stroke="none"><path d="M2718 4156 c-203 -58 -304 -293 -207 -481 128 -249 488 -241 608 14 22 47 26 70 26 141 0 71 -4 94 -27 142 -69 148 -244 229 -400 184z"></path><path d="M883 4069 c-107 -14 -204 -86 -252 -189 -21 -45 -26 -70 -26 -135 0 -71 4 -88 33 -147 57 -117 160 -181 292 -182 66 -1 84 3 142 32 185 91 244 305 132 477 -72 109 -187 161 -321 144z"></path><path d="M2430 3389 c-104 -12 -177 -57 -235 -145 -48 -72 -82 -155 -154 -381 -186 -584 -220 -687 -225 -673 -3 8 -60 197 -127 420 -67 223 -132 426 -144 451 -58 115 -162 205 -277 241 -52 16 -95 18 -336 18 -293 0 -334 -5 -422 -50 -59 -30 -159 -133 -189 -194 -13 -26 -91 -272 -173 -545 -160 -531 -164 -551 -121 -610 11 -14 36 -34 57 -45 48 -23 95 -15 141 26 40 35 33 14 194 568 l108 375 37 3 c26 2 35 0 31 -10 -2 -7 -99 -348 -216 -757 -116 -410 -213 -751 -216 -758 -4 -10 35 -13 201 -13 l206 0 0 -590 c0 -476 3 -597 14 -623 19 -47 68 -85 121 -93 59 -8 131 26 160 76 19 34 20 54 23 633 l3 597 44 0 45 0 0 -602 c0 -580 1 -604 20 -635 56 -92 214 -88 262 7 17 32 18 84 18 633 l0 597 211 0 c196 0 210 1 205 18 -3 9 -91 312 -196 672 -105 360 -203 699 -219 753 l-29 98 41 -3 41 -3 132 -453 c121 -417 134 -456 165 -488 38 -39 83 -51 133 -34 32 10 40 9 70 -9 43 -27 110 -27 153 -1 31 18 62 67 78 120 4 14 70 217 147 453 120 367 142 427 158 427 19 0 20 -24 22 -1367 l3 -1368 24 -36 c50 -74 132 -103 221 -79 56 15 114 72 129 125 7 28 11 284 11 828 l0 787 25 0 24 0 3 -792 c3 -747 4 -795 22 -835 67 -154 291 -163 359 -15 l22 47 3 1353 2 1352 35 0 35 0 0 -501 c0 -555 -1 -548 65 -589 41 -25 116 -27 156 -3 16 10 38 36 49 58 19 40 20 64 20 606 0 609 -1 623 -54 727 -50 99 -130 168 -249 215 -49 19 -72 21 -432 22 -209 0 -405 -2 -435 -6z"></path></g></svg>