    <svg
      xmlns="http://www.w3.org/2000/svg"
      width="860.000000pt"
      height="892.000000pt"
      viewBox="0 0 860.000000 892.000000"
      preserveAspectRatio="xMidYMid meet"
    >
      <g
        transform="translate(0.000000,892.000000) scale(0.100000,-0.100000)"
        fill="#000000"
        stroke="none"
      >
        <path d="M4428 8510 c-26 -5 -71 -16 -100 -26 -34 -11 -88 -18 -153 -19 -87 -1 -114 -6 -210 -39 -147 -49 -345 -148 -480 -237 -117 -77 -158 -115 -685 -634 -290 -286 -407 -393 -459 -419 -27 -14 -30 -14 -51 9 -30 32 -63 32 -84 0 -19 -29 -37 -31 -74 -11 -15 8 -39 17 -53 20 -21 5 -30 19 -57 88 -18 46 -40 121 -49 166 -18 91 -71 189 -115 214 -13 7 -66 17 -118 23 -87 9 -96 12 -107 36 -8 17 -27 30 -55 38 -24 7 -52 19 -62 27 -17 11 -26 10 -65 -10 -80 -41 -135 -66 -151 -68 -8 -1 -47 4 -86 11 -127 24 -200 -3 -326 -118 -73 -67 -100 -114 -126 -217 -16 -64 -19 -69 -47 -74 l-29 -5 36 -36 c42 -42 36 -59 -20 -59 -50 0 -148 -28 -211 -60 -74 -37 -128 -91 -159 -158 -37 -82 -39 -126 -8 -205 15 -36 31 -94 37 -129 15 -95 49 -216 65 -229 24 -20 16 -56 -36 -164 -28 -57 -50 -108 -50 -113 0 -4 13 -18 29 -30 l29 -21 11 46 c16 62 48 123 66 123 37 0 50 -125 17 -158 -15 -15 -17 -36 -16 -157 2 -119 6 -153 28 -227 27 -93 26 -90 186 -256 111 -116 403 -208 570 -181 34 5 79 18 99 28 20 11 70 29 111 41 41 13 93 32 115 43 46 23 171 140 211 199 18 25 48 50 83 68 102 51 96 55 96 -63 1 -135 46 -324 81 -337 14 -6 22 -17 22 -32 0 -13 5 -41 10 -63 6 -22 18 -107 27 -189 32 -279 81 -430 207 -638 96 -160 132 -229 148 -288 48 -178 278 -400 487 -471 57 -19 60 -21 96 -92 21 -39 52 -97 68 -128 59 -108 62 -271 9 -514 -10 -49 -44 -205 -74 -345 -95 -442 -143 -636 -180 -716 -19 -41 -76 -144 -125 -227 -104 -175 -118 -211 -170 -437 -38 -164 -76 -273 -144 -422 l-36 -78 660 0 659 0 0 1945 0 1945 -59 0 -60 0 -345 362 -346 363 0 633 0 634 53 76 52 76 5 -420 c3 -230 9 -428 14 -439 19 -42 59 -86 96 -105 36 -18 59 -20 258 -20 l220 0 48 33 49 33 43 -31 44 -30 223 -3 c240 -3 256 -1 313 51 l22 21 28 -27 c45 -43 71 -47 293 -47 222 0 255 5 293 48 l19 22 31 -27 c46 -39 88 -53 157 -53 l62 0 -6 -37 c-4 -21 -9 -57 -13 -80 -5 -35 -3 -43 14 -52 27 -14 51 -4 57 23 9 38 115 685 115 700 0 8 -71 73 -158 144 -87 71 -170 145 -185 165 -27 36 -28 39 -25 159 l3 122 73 18 73 18 362 -116 363 -117 57 -98 57 -98 -1 -593 0 -593 -340 -355 -339 -355 -65 -3 -65 -3 1 -1907 0 -1907 25 85 c14 46 78 222 143 390 65 168 137 364 160 435 59 182 102 267 170 336 108 110 159 106 451 -35 277 -134 376 -160 647 -172 172 -7 253 6 353 55 181 90 234 188 249 459 13 221 30 261 135 311 72 34 96 61 96 106 0 16 4 45 10 64 7 27 5 43 -11 81 -28 66 -69 102 -121 109 -29 4 -43 11 -43 21 0 9 7 14 17 12 10 -1 31 4 47 13 17 8 52 15 80 15 63 0 98 13 112 43 6 13 26 32 45 42 27 14 37 29 49 68 13 44 13 55 -1 106 -14 47 -14 67 -5 113 23 110 71 149 261 214 70 24 94 37 137 80 55 54 83 121 83 194 0 106 -88 284 -325 655 -159 248 -200 346 -212 497 l-6 77 36 21 c34 20 56 54 43 67 -3 4 -16 -3 -29 -15 -32 -30 -37 -28 -37 16 0 55 26 136 55 170 14 17 25 36 25 43 1 8 7 32 15 54 12 34 12 41 0 55 -10 11 -17 47 -19 101 -3 46 -14 110 -25 141 -26 76 -55 225 -86 448 -18 131 -36 216 -61 290 -62 186 -178 406 -303 573 -30 40 -48 73 -45 82 4 8 1 15 -5 15 -10 0 -51 57 -51 71 0 3 11 11 25 17 43 20 41 39 -9 92 -47 51 -54 68 -35 87 20 20 0 61 -44 91 -23 16 -99 88 -169 160 -70 72 -136 133 -148 137 -11 4 -37 32 -58 63 -31 48 -43 58 -74 63 -21 3 -78 34 -135 72 -54 36 -134 83 -178 103 -44 21 -87 45 -96 53 -8 9 -116 47 -240 85 -123 37 -233 77 -245 87 -11 10 -30 19 -43 19 -12 0 -34 6 -50 14 -15 8 -65 24 -112 36 -46 12 -136 39 -199 61 -63 22 -135 44 -160 50 -45 10 -260 27 -420 34 -47 1 -116 8 -155 14 -80 12 -228 12 -297 1z m332 -1215 c81 -14 86 -17 137 -67 l53 -52 0 -694 c0 -770 4 -729 -67 -758 -47 -20 -380 -20 -428 0 -68 29 -65 -2 -65 783 l0 707 53 54 52 54 90 -6 c50 -3 128 -13 175 -21z m-498 -32 l48 -47 0 -713 0 -713 -34 -38 -34 -37 -204 -3 c-190 -2 -205 -1 -236 18 -63 39 -62 22 -62 743 l0 653 63 46 c34 25 76 52 92 60 42 21 151 56 210 67 95 17 105 15 157 -36z m1049 -169 c97 -48 172 -96 237 -151 l52 -45 0 -69 c0 -38 -4 -69 -9 -69 -5 0 -99 29 -210 66 l-202 65 -57 -16 c-31 -9 -65 -18 -74 -21 -17 -5 -18 7 -18 151 l0 156 31 13 c28 12 39 10 104 -15 40 -15 106 -44 146 -65z m-1660 36 c18 -10 19 -28 19 -661 0 -716 1 -700 -62 -739 -31 -19 -46 -20 -236 -18 l-204 3 -34 37 -34 38 0 479 0 479 38 49 c87 110 217 211 377 295 97 51 106 53 136 38z m1542 -859 c71 -58 127 -111 126 -120 0 -9 -17 -113 -37 -231 l-37 -215 -67 0 c-52 0 -73 5 -95 21 -52 38 -53 46 -53 372 0 290 1 303 18 290 10 -7 75 -60 145 -117z"></path>
      </g>
    </svg>
